<svg width="139" height="24" viewBox="0 0 139 24" fill="none" xmlns="http://www.w3.org/2000/svg">
<g clip-path="url(#clip0_1_63)">
<path fill-rule="evenodd" clip-rule="evenodd" d="M22.579 16.324C19.0671 22.4069 12.8669 25.402 8.7306 23.0139C4.59425 20.6258 4.08805 13.7587 7.59998 7.67588C11.1119 1.59304 17.3121 -1.40211 21.4484 0.986009C25.5848 3.37413 26.091 10.2412 22.579 16.324ZM6.28604 6.03514C5.14469 8.01201 3.1297 8.98541 1.78542 8.20929C0.441141 7.43317 0.276632 5.20144 1.41798 3.22457C2.55932 1.2477 4.57432 0.2743 5.91859 1.05042C7.26287 1.82654 7.42738 4.05827 6.28604 6.03514ZM32.5551 5.28557V8.15701H37.3269V20.8436H40.6891V8.15701H45.4505V5.28557H32.5551ZM46.3175 20.3842C47.1668 20.8575 48.1518 21.0942 49.2725 21.0942C50.4002 21.0942 51.3852 20.8575 52.2275 20.3842C53.0768 19.9039 53.7381 19.2321 54.2114 18.3689C54.6917 17.5058 54.9319 16.4964 54.9319 15.3409C54.9319 14.1853 54.6917 13.176 54.2114 12.3128C53.7381 11.4426 53.0768 10.7674 52.2275 10.2871C51.3852 9.80679 50.4002 9.56664 49.2725 9.56664C48.1518 9.56664 47.1668 9.80679 46.3175 10.2871C45.4683 10.7674 44.8035 11.4426 44.3232 12.3128C43.8498 13.176 43.6132 14.1853 43.6132 15.3409C43.6132 16.4964 43.8498 17.5058 44.3232 18.3689C44.8035 19.2321 45.4683 19.9039 46.3175 20.3842ZM50.5255 18.1288C50.1705 18.3724 49.7528 18.4942 49.2725 18.4942C48.7992 18.4942 48.3815 18.3724 48.0195 18.1288C47.6576 17.8782 47.3756 17.5162 47.1738 17.0428C46.9719 16.5695 46.8709 16.0022 46.8709 15.3409C46.8709 14.6656 46.9719 14.0948 47.1738 13.6284C47.3756 13.1551 47.6576 12.7931 48.0195 12.5425C48.3815 12.2919 48.7992 12.1666 49.2725 12.1666C49.7528 12.1666 50.1705 12.2919 50.5255 12.5425C50.8875 12.7931 51.1694 13.1551 51.3713 13.6284C51.5732 14.0948 51.6741 14.6656 51.6741 15.3409C51.6741 16.0022 51.5732 16.5695 51.3713 17.0428C51.1694 17.5162 50.8875 17.8782 50.5255 18.1288ZM59.37 14.5995V20.8436H56.154V9.81723H59.3387V11.8325L59.37 11.7803C59.6276 11.1259 60.0452 10.5969 60.623 10.1931C61.2008 9.78939 61.9143 9.58752 62.7635 9.58752C63.5571 9.58752 64.2636 9.76503 64.8832 10.12C65.5027 10.4681 65.9935 10.9693 66.3555 11.6236C66.7174 12.271 66.8984 13.0402 66.8984 13.9312V20.8436H63.6824V14.4951C63.6824 13.7781 63.491 13.2247 63.1081 12.8349C62.7322 12.445 62.2206 12.2501 61.5732 12.2501C61.1555 12.2501 60.7796 12.3371 60.4455 12.5112C60.1114 12.6852 59.8468 12.9462 59.6519 13.2943C59.464 13.6424 59.37 14.0774 59.37 14.5995ZM74.9911 13.3361H77.967C77.9461 12.5634 77.7303 11.8986 77.3196 11.3417C76.9158 10.7848 76.352 10.3532 75.628 10.047C74.9041 9.74066 74.0548 9.58752 73.0803 9.58752C72.1057 9.58752 71.2634 9.7337 70.5534 10.0261C69.8434 10.3115 69.2969 10.7187 68.9141 11.2477C68.5312 11.7698 68.3398 12.3824 68.3398 13.0855C68.3398 13.9417 68.6182 14.6413 69.1751 15.1842C69.739 15.7272 70.5569 16.1031 71.6289 16.3119L73.5815 16.6774C74.027 16.7609 74.3716 16.8897 74.6152 17.0637C74.8588 17.2378 74.9807 17.4605 74.9807 17.732C74.9807 18.0592 74.824 18.3272 74.5108 18.536C74.1975 18.7379 73.7659 18.8388 73.216 18.8388C72.6382 18.8388 72.1788 18.7065 71.8377 18.442C71.5036 18.1775 71.3122 17.819 71.2634 17.3665H68.0892C68.1518 18.1462 68.4094 18.8179 68.8619 19.3818C69.3213 19.9387 69.9269 20.3668 70.6787 20.6661C71.4375 20.9654 72.3006 21.1151 73.2682 21.1151C74.2497 21.1151 75.1129 20.9619 75.8577 20.6556C76.6096 20.3494 77.1943 19.9213 77.6119 19.3713C78.0296 18.8144 78.2384 18.1671 78.2384 17.4292C78.2384 16.6147 77.9739 15.9639 77.4449 15.4766C76.9158 14.9824 76.091 14.6273 74.9702 14.4116L72.8401 14.0043C72.4364 13.9208 72.1196 13.792 71.8899 13.618C71.6602 13.444 71.5454 13.2212 71.5454 12.9497C71.5454 12.6434 71.6881 12.3859 71.9735 12.177C72.2658 11.9613 72.6696 11.8534 73.1847 11.8534C73.7137 11.8534 74.1453 11.9961 74.4795 12.2815C74.8136 12.5599 74.9841 12.9114 74.9911 13.3361ZM85.7673 9.81723V12.3337H83.5119V17.1368C83.5119 17.5684 83.6024 17.8747 83.7834 18.0557C83.9644 18.2367 84.2706 18.3272 84.7022 18.3272H85.2765H85.7673V20.8436H84.9842H83.9504C82.7322 20.8436 81.8169 20.5826 81.2043 20.0605C80.5987 19.5314 80.2959 18.7414 80.2959 17.6902V12.3337H78.6356V9.81723H80.2959V6.81004H83.5119V9.81723H85.7673ZM88.469 20.6661C89.0398 20.9097 89.6942 21.0315 90.4321 21.0315C90.982 21.0315 91.4588 20.9654 91.8626 20.8332C92.2663 20.6939 92.6144 20.4955 92.9067 20.238C93.1991 19.9735 93.4462 19.6567 93.6481 19.2878H93.6898V20.8436H96.8328V13.263C96.8328 12.7409 96.7179 12.2571 96.4882 11.8116C96.2654 11.3661 95.9452 10.9763 95.5276 10.6421C95.1099 10.308 94.5983 10.0504 93.9926 9.86944C93.394 9.68149 92.7188 9.58752 91.967 9.58752C90.9298 9.58752 90.0492 9.75807 89.3252 10.0992C88.6013 10.4333 88.0444 10.8858 87.6546 11.4566C87.2648 12.0204 87.049 12.6434 87.0072 13.3256H90.0144C90.0422 13.0541 90.1362 12.814 90.2963 12.6052C90.4564 12.3963 90.6757 12.2362 90.9541 12.1248C91.2326 12.0065 91.5528 11.9473 91.9148 11.9473C92.2767 11.9473 92.5865 12.003 92.8441 12.1144C93.1016 12.2258 93.3 12.3789 93.4392 12.5738C93.5785 12.7687 93.6481 12.995 93.6481 13.2525V13.3256C93.6481 13.5553 93.5611 13.7294 93.387 13.8477C93.213 13.966 92.9276 14.06 92.5308 14.1296C92.134 14.1923 91.6015 14.2549 90.9333 14.3176C90.3555 14.3663 89.8056 14.4603 89.2835 14.5995C88.7684 14.7318 88.3124 14.9267 87.9156 15.1842C87.5188 15.4348 87.2056 15.769 86.9759 16.1866C86.7462 16.5973 86.6313 17.1159 86.6313 17.7424C86.6313 18.4733 86.7949 19.0824 87.1221 19.5697C87.4492 20.057 87.8982 20.4225 88.469 20.6661ZM92.5726 18.5778C92.2245 18.7518 91.8138 18.8388 91.3405 18.8388C90.8462 18.8388 90.4495 18.7309 90.1501 18.5151C89.8508 18.2993 89.7011 18.007 89.7011 17.638C89.7011 17.3596 89.7812 17.1264 89.9413 16.9384C90.1084 16.7505 90.3276 16.6008 90.5991 16.4894C90.8776 16.3781 91.1873 16.2945 91.5284 16.2388C91.7721 16.204 92.0018 16.1692 92.2176 16.1344C92.4403 16.0927 92.6422 16.0509 92.8232 16.0091C93.0111 15.9674 93.1747 15.9256 93.3139 15.8838C93.4601 15.8421 93.5785 15.7968 93.669 15.7481V16.834C93.669 17.2169 93.5715 17.5614 93.3766 17.8677C93.1886 18.1671 92.9206 18.4037 92.5726 18.5778ZM101.743 20.8436V17.4022L102.591 16.4532L105.721 20.8436H109.47L105.002 14.6127L109.251 9.81723H105.502L101.775 13.9521H101.743V5.28557H98.5272V20.8436H101.743ZM111.476 20.3633C112.311 20.8506 113.286 21.0942 114.399 21.0942C115.297 21.0942 116.119 20.9376 116.864 20.6243C117.615 20.3041 118.235 19.8656 118.722 19.3087C119.217 18.7448 119.533 18.0975 119.672 17.3665H116.738C116.648 17.6311 116.498 17.8677 116.289 18.0766C116.088 18.2784 115.833 18.4351 115.527 18.5464C115.228 18.6578 114.887 18.7135 114.504 18.7135C113.968 18.7135 113.508 18.6021 113.126 18.3794C112.75 18.1497 112.461 17.8329 112.259 17.4292C112.082 17.0553 111.985 16.6237 111.969 16.1344H119.766V15.2678C119.766 14.4324 119.634 13.6667 119.37 12.9706C119.112 12.2745 118.74 11.6724 118.252 11.1642C117.772 10.6491 117.198 10.2558 116.53 9.9843C115.861 9.70586 115.116 9.56664 114.295 9.56664C113.23 9.56664 112.287 9.81375 111.465 10.308C110.644 10.8022 110 11.4844 109.534 12.3546C109.067 13.2177 108.834 14.2132 108.834 15.3409C108.834 16.4546 109.064 17.4466 109.523 18.3167C109.99 19.1869 110.64 19.869 111.476 20.3633ZM111.991 14.1296C112.032 13.7814 112.121 13.4716 112.259 13.2003C112.454 12.8105 112.729 12.5112 113.084 12.3023C113.446 12.0935 113.874 11.9891 114.368 11.9891C114.869 11.9891 115.297 12.0935 115.652 12.3023C116.007 12.5112 116.282 12.8105 116.477 13.2003C116.615 13.4716 116.705 13.7814 116.745 14.1296H111.991ZM120.957 20.8436V9.81723H124.069V11.7176H124.09C124.292 11.0424 124.608 10.5481 125.04 10.2349C125.472 9.91469 126.053 9.75459 126.784 9.75459C126.972 9.75459 127.139 9.75807 127.285 9.76503C127.438 9.76503 127.581 9.76851 127.713 9.77547V12.4903C127.595 12.4833 127.403 12.4729 127.139 12.459C126.881 12.445 126.624 12.4381 126.366 12.4381C125.941 12.4381 125.562 12.5355 125.228 12.7305C124.901 12.9184 124.643 13.2003 124.455 13.5762C124.267 13.9521 124.173 14.4116 124.173 14.9545V20.8436H120.957ZM134.835 13.3361H137.811C137.79 12.5634 137.574 11.8986 137.164 11.3417C136.76 10.7848 136.196 10.3532 135.472 10.047C134.748 9.74066 133.899 9.58752 132.924 9.58752C131.95 9.58752 131.108 9.7337 130.398 10.0261C129.687 10.3115 129.141 10.7187 128.758 11.2477C128.375 11.7698 128.184 12.3824 128.184 13.0855C128.184 13.9417 128.462 14.6413 129.019 15.1842C129.583 15.7272 130.401 16.1031 131.473 16.3119L133.426 16.6774C133.871 16.7609 134.216 16.8897 134.459 17.0637C134.703 17.2378 134.825 17.4605 134.825 17.732C134.825 18.0592 134.668 18.3272 134.355 18.536C134.042 18.7379 133.61 18.8388 133.06 18.8388C132.482 18.8388 132.023 18.7065 131.682 18.442C131.348 18.1775 131.156 17.819 131.108 17.3665H127.933C127.996 18.1462 128.254 18.8179 128.706 19.3818C129.165 19.9387 129.771 20.3668 130.523 20.6661C131.282 20.9654 132.145 21.1151 133.112 21.1151C134.094 21.1151 134.957 20.9619 135.702 20.6556C136.454 20.3494 137.038 19.9213 137.456 19.3713C137.874 18.8144 138.083 18.1671 138.083 17.4292C138.083 16.6147 137.818 15.9639 137.289 15.4766C136.76 14.9824 135.935 14.6273 134.814 14.4116L132.684 14.0043C132.28 13.9208 131.964 13.792 131.734 13.618C131.504 13.444 131.389 13.2212 131.389 12.9497C131.389 12.6434 131.532 12.3859 131.818 12.177C132.11 11.9613 132.514 11.8534 133.029 11.8534C133.558 11.8534 133.989 11.9961 134.324 12.2815C134.658 12.5599 134.828 12.9114 134.835 13.3361Z" fill="white"/>
</g>
<defs>
<clipPath id="clip0_1_63">
<rect width="139" height="24" fill="white"/>
</clipPath>
</defs>
</svg>
